<svg width="70" height="70" viewBox="0 0 70 70" fill="none" xmlns="http://www.w3.org/2000/svg">
<rect width="70" height="70" rx="10" fill="white"/>
<g clip-path="url(#clip0_3510_169)">
<path fill-rule="evenodd" clip-rule="evenodd" d="M35.0199 11C21.7375 11 11 21.8167 11 35.1983C11 45.895 17.8799 54.9495 27.4241 58.1542C28.6174 58.3951 29.0545 57.6335 29.0545 56.9929C29.0545 56.4319 29.0151 54.509 29.0151 52.5055C22.3334 53.948 20.942 49.6209 20.942 49.6209C19.8682 46.8164 18.2772 46.0956 18.2772 46.0956C16.0902 44.6132 18.4365 44.6132 18.4365 44.6132C20.8623 44.7735 22.1353 47.0971 22.1353 47.0971C24.2824 50.7827 27.7422 49.7413 29.1341 49.1002C29.3328 47.5377 29.9695 46.456 30.6455 45.8552C25.3163 45.2942 19.7094 43.211 19.7094 33.9161C19.7094 31.2719 20.6632 29.1086 22.1746 27.4261C21.9361 26.8253 21.1008 24.3409 22.4135 21.0157C22.4135 21.0157 24.4417 20.3746 29.0146 23.4996C30.9725 22.9699 32.9916 22.7005 35.0199 22.6982C37.048 22.6982 39.1154 22.979 41.0246 23.4996C45.5981 20.3746 47.6262 21.0157 47.6262 21.0157C48.9389 24.3409 48.1031 26.8253 47.8646 27.4261C49.4158 29.1086 50.3303 31.2719 50.3303 33.9161C50.3303 43.211 44.7234 45.2539 39.3544 45.8552C40.2296 46.6163 40.9848 48.0584 40.9848 50.3421C40.9848 53.5871 40.9454 56.1915 40.9454 56.9924C40.9454 57.6335 41.383 58.3951 42.5758 58.1547C52.12 54.9491 58.9999 45.895 58.9999 35.1983C59.0392 21.8167 48.2624 11 35.0199 11Z" fill="#24292F"/>
</g>
<defs>
<clipPath id="clip0_3510_169">
<rect width="48" height="48" fill="white" transform="translate(11 11)"/>
</clipPath>
</defs>
</svg>
