<svg width="70" height="70" viewBox="0 0 70 70" fill="none" xmlns="http://www.w3.org/2000/svg">
<rect width="70" height="70" rx="10" fill="url(#paint0_linear_3510_171)"/>
<path d="M47.5675 21.0149L35.43 30.2649L23.015 21.0149V21.0174L23.03 21.0299V33.9824L35.29 43.4324L47.5675 34.3474V21.0149Z" fill="#EA4335"/>
<path d="M50.755 18.7649L47.5675 21.0149V34.3475L57.5975 26.8274V22.2974C57.5975 22.2974 56.38 15.8274 50.755 18.7649Z" fill="#FBBC05"/>
<path d="M47.5675 34.3474V51.6399H55.255C55.255 51.6399 57.4425 51.4199 57.6 48.9849V26.8274L47.5675 34.3474Z" fill="#34A853"/>
<path d="M23.03 51.655V33.9825L23.015 33.97L23.03 51.655Z" fill="#C5221F"/>
<path d="M23.015 21.0174L19.845 18.7799C14.22 15.8424 13 22.3099 13 22.3099V26.8399L23.015 33.97V21.0174Z" fill="#C5221F"/>
<path d="M23.015 21.0175V33.97L23.03 33.9825V21.03L23.015 21.0175Z" fill="#C5221F"/>
<path d="M13 26.8424V49C13.155 51.4375 15.345 51.655 15.345 51.655H23.0325L23.015 33.9699L13 26.8424Z" fill="#4285F4"/>
<defs>
<linearGradient id="paint0_linear_3510_171" x1="35" y1="0" x2="35" y2="70" gradientUnits="userSpaceOnUse">
<stop stop-color="#595959"/>
<stop offset="0.16" stop-color="#4D4D4D"/>
<stop offset="0.26" stop-color="#333333"/>
<stop offset="0.52"/>
</linearGradient>
</defs>
</svg>
