<svg width="70" height="70" viewBox="0 0 70 70" fill="none" xmlns="http://www.w3.org/2000/svg">
<rect width="70" height="70" rx="10" fill="#FFFFFC"/>
<path d="M47.5675 20.0149L35.43 29.2649L23.015 20.0149V20.0174L23.03 20.0299V32.9824L35.29 42.4324L47.5675 33.3474V20.0149Z" fill="#EA4335"/>
<path d="M50.755 17.7649L47.5675 20.0149V33.3475L57.5975 25.8274V21.2974C57.5975 21.2974 56.38 14.8274 50.755 17.7649Z" fill="#FBBC05"/>
<path d="M47.5675 33.3474V50.6399H55.255C55.255 50.6399 57.4425 50.4199 57.6 47.9849V25.8274L47.5675 33.3474Z" fill="#34A853"/>
<path d="M23.0298 50.655V32.9825L23.015 32.97L23.0298 50.655Z" fill="#C5221F"/>
<path d="M23.015 20.0174L19.845 17.7799C14.22 14.8424 13 21.3099 13 21.3099V25.8399L23.015 32.97V20.0174Z" fill="#C5221F"/>
<path d="M23.015 20.0175V32.97L23.0298 32.9825V20.03L23.015 20.0175Z" fill="#C5221F"/>
<path d="M13 25.8424V48C13.155 50.4375 15.345 50.655 15.345 50.655H23.0325L23.015 32.9699L13 25.8424Z" fill="#4285F4"/>
</svg>
