<svg width="246" height="250" viewBox="0 0 246 250" fill="none" xmlns="http://www.w3.org/2000/svg">
<path d="M245.399 127.813C245.399 119.583 244.67 111.771 243.42 104.167H125.711V151.146H193.107C190.086 166.563 181.232 179.583 168.107 188.438V219.688H208.316C231.857 197.917 245.399 165.833 245.399 127.813Z" fill="white"/>
<path d="M125.711 250C159.461 250 187.691 238.75 208.316 219.688L168.107 188.438C156.857 195.938 142.586 200.521 125.711 200.521C93.1073 200.521 65.5031 178.542 55.6073 148.854H14.1489V181.042C34.6698 221.875 76.8573 250 125.711 250Z" fill="white"/>
<path d="M55.6073 148.854C53.0031 141.354 51.6489 133.333 51.6489 125C51.6489 116.667 53.1073 108.646 55.6073 101.146V68.9583H14.1489C5.60726 85.8333 0.711426 104.792 0.711426 125C0.711426 145.208 5.60726 164.167 14.1489 181.042L55.6073 148.854Z" fill="white"/>
<path d="M125.711 49.4792C144.149 49.4792 160.607 55.8333 173.628 68.2292L209.253 32.6042C187.691 12.3958 159.461 0 125.711 0C76.8573 0 34.6698 28.125 14.1489 68.9583L55.6073 101.146C65.5031 71.4583 93.1073 49.4792 125.711 49.4792Z" fill="white"/>
</svg>
