<svg width="70" height="70" viewBox="0 0 70 70" fill="none" xmlns="http://www.w3.org/2000/svg">
<rect width="70" height="70" rx="10" fill="url(#paint0_linear_3510_167)"/>
<path d="M55.5944 46.3594C48.1613 42.7601 46.9766 37.203 46.9239 36.7908C46.8601 36.2915 46.7877 35.8989 47.3384 35.391C47.8694 34.9003 50.2253 33.4417 50.879 32.9854C51.9594 32.2297 52.4352 31.4753 52.0845 30.5478C51.8392 29.9062 51.242 29.6646 50.6128 29.6646C50.4144 29.6652 50.2166 29.6874 50.0229 29.7308C48.8358 29.9884 47.683 30.5834 47.0158 30.7441C46.9357 30.7648 46.8533 30.7759 46.7706 30.7772C46.4149 30.7772 46.28 30.619 46.3144 30.1909C46.3977 28.893 46.5743 26.3597 46.3695 23.9933C46.0887 20.7375 45.0389 19.1243 43.7941 17.6976C43.192 17.0057 40.3958 14.0333 34.9997 14.0333C29.6036 14.0333 26.8112 17.0057 26.2127 17.689C24.9642 19.1158 23.9157 20.7289 23.6373 23.9847C23.4325 26.3511 23.6164 28.8831 23.6925 30.1823C23.717 30.5895 23.5919 30.7687 23.2363 30.7687C23.1535 30.7672 23.0712 30.7561 22.991 30.7355C22.3251 30.5748 21.1723 29.9799 19.9851 29.7222C19.7915 29.6788 19.5937 29.6566 19.3952 29.656C18.7636 29.656 18.1688 29.9013 17.9236 30.5393C17.5728 31.4667 18.0462 32.2211 19.1303 32.9768C19.784 33.4332 22.1399 34.8905 22.6709 35.3825C23.2203 35.8903 23.1492 36.2829 23.0854 36.7822C23.0327 37.2005 21.8468 42.7577 14.4149 46.3508C13.9795 46.5618 13.2388 47.0084 14.5449 47.7297C16.5954 48.8632 17.9604 48.7418 19.0212 49.4251C19.9213 50.0053 19.3891 51.2566 20.044 51.7081C20.8485 52.2638 23.2264 51.6688 26.2985 52.6833C28.8739 53.5322 30.4388 55.9305 35.0059 55.9305C39.5729 55.9305 41.1832 53.5212 43.7132 52.6833C46.7791 51.6688 49.162 52.2638 49.9677 51.7081C50.6214 51.2566 50.0904 50.0053 50.9906 49.4251C52.0514 48.7418 53.4151 48.8632 55.4669 47.7297C56.7705 47.017 56.0298 46.5704 55.5944 46.3594Z" fill="black"/>
<path d="M58.8284 45.937C58.4948 45.0292 57.8596 44.5434 57.136 44.141C56.9999 44.0613 56.8748 43.9975 56.7681 43.9484C56.5522 43.8368 56.3315 43.7288 56.112 43.6147C53.8566 42.4187 52.0956 40.9098 50.8741 39.1212C50.5272 38.6176 50.2263 38.0839 49.9751 37.5264C49.8709 37.2283 49.8758 37.059 49.9506 36.9044C50.0248 36.7853 50.123 36.683 50.2388 36.6039C50.6263 36.3475 51.0261 36.0874 51.2972 35.912C51.7804 35.5992 52.163 35.3513 52.4095 35.1759C53.3354 34.5282 53.983 33.84 54.3877 33.0708C54.67 32.5394 54.8347 31.9534 54.8705 31.3526C54.9062 30.7519 54.8122 30.1505 54.5949 29.5893C53.9817 27.9749 52.4573 26.9726 50.6104 26.9726C50.2208 26.9723 49.8323 27.0134 49.4515 27.0953C49.3497 27.1174 49.2479 27.1407 49.1485 27.1665C49.1657 26.0624 49.1412 24.897 49.0431 23.75C48.6948 19.7176 47.2832 17.6039 45.8116 15.9184C44.8691 14.8622 43.7591 13.9685 42.5261 13.2735C40.2928 11.9977 37.7603 11.35 34.9998 11.35C32.2392 11.35 29.719 11.9977 27.4833 13.2735C26.2472 13.9688 25.1349 14.8642 24.1916 15.9233C22.72 17.6089 21.3084 19.7262 20.9601 23.7549C20.862 24.9019 20.8375 26.0734 20.8534 27.1714C20.7541 27.1456 20.6535 27.1223 20.5517 27.1002C20.1709 27.0183 19.7824 26.9772 19.3928 26.9776C17.5446 26.9776 16.0178 27.9798 15.4071 29.5942C15.1887 30.1556 15.0938 30.7575 15.1287 31.3589C15.1637 31.9602 15.3276 32.547 15.6094 33.0794C16.0153 33.8486 16.6629 34.5368 17.5888 35.1845C17.8341 35.3563 18.2179 35.6041 18.7011 35.9206C18.9623 36.0899 19.3437 36.3377 19.7178 36.5855C19.8487 36.6701 19.9599 36.7818 20.044 36.913C20.1225 37.0737 20.125 37.2467 20.0084 37.5656C19.7606 38.1114 19.4647 38.634 19.1242 39.1273C17.9297 40.8754 16.2201 42.3573 14.0372 43.5436C12.8807 44.157 11.6788 44.5667 11.1711 45.9468C10.7885 46.9883 11.0387 48.1733 12.0112 49.1719C12.3681 49.5446 12.7821 49.8581 13.2376 50.1006C14.1853 50.6216 15.1931 51.0249 16.2385 51.3016C16.4543 51.3572 16.6591 51.4489 16.8444 51.5727C17.1988 51.883 17.1485 52.3504 17.6207 53.035C17.8577 53.3887 18.1588 53.695 18.5086 53.9378C19.4995 54.6224 20.6131 54.6653 21.7928 54.7107C22.8586 54.7512 24.0665 54.7978 25.4462 55.2529C26.0177 55.4418 26.6113 55.8074 27.2993 56.2343C28.9512 57.2501 31.2127 58.64 34.9973 58.64C38.7819 58.64 41.0593 57.2427 42.7235 56.2233C43.4066 55.8037 43.9965 55.4418 44.5521 55.2578C45.9317 54.8015 47.1397 54.7561 48.2055 54.7156C49.3852 54.6702 50.4988 54.6273 51.4897 53.9427C51.9039 53.6539 52.249 53.2768 52.5003 52.8387C52.84 52.2609 52.8314 51.8573 53.1502 51.5751C53.3241 51.4572 53.5164 51.3693 53.7193 51.3151C54.779 51.0375 55.8005 50.6304 56.7607 50.103C57.2446 49.8433 57.6802 49.5022 58.0484 49.0946L58.0607 49.0799C58.9731 48.1034 59.2024 46.9527 58.8284 45.937ZM55.4644 47.7452C53.4127 48.8787 52.0489 48.7573 50.9881 49.4406C50.0867 50.0208 50.6202 51.2721 49.9653 51.7236C49.1608 52.2793 46.7829 51.6843 43.7108 52.6988C41.1771 53.5367 39.5607 55.946 35.0034 55.946C30.4462 55.946 28.8678 53.5416 26.2924 52.6927C23.2265 51.6782 20.8436 52.2731 20.0379 51.7174C19.3842 51.266 19.9152 50.0147 19.0151 49.4344C17.953 48.7511 16.5893 48.8726 14.5388 47.7452C13.2327 47.0239 13.9734 46.5773 14.4088 46.3663C21.8407 42.7671 23.0266 37.2099 23.0793 36.7977C23.1431 36.2984 23.2142 35.9058 22.6648 35.398C22.1338 34.9073 19.7779 33.4487 19.1242 32.9923C18.0426 32.2366 17.5667 31.4822 17.9175 30.5548C18.1627 29.9132 18.7612 29.6715 19.3891 29.6715C19.5876 29.6721 19.7854 29.6943 19.979 29.7377C21.1661 29.9954 22.319 30.5903 22.9849 30.751C23.0651 30.7716 23.1474 30.7827 23.2302 30.7842C23.5858 30.7842 23.7109 30.6051 23.6864 30.1978C23.6103 28.8986 23.4264 26.3666 23.6312 24.0002C23.912 20.7444 24.9606 19.1313 26.2066 17.7045C26.8051 17.0188 29.6172 14.0464 34.9949 14.0464C40.3725 14.0464 43.192 17.0065 43.7905 17.6898C45.0377 19.1165 46.0875 20.7297 46.3659 23.9855C46.5707 26.3519 46.3941 28.8851 46.3107 30.183C46.2825 30.6112 46.4113 30.7694 46.7669 30.7694C46.8497 30.7681 46.932 30.757 47.0122 30.7363C47.6793 30.5756 48.8321 29.9806 50.0193 29.723C50.2129 29.6796 50.4107 29.6574 50.6092 29.6568C51.2408 29.6568 51.8356 29.9021 52.0808 30.54C52.4316 31.4675 51.9582 32.2219 50.8753 32.9776C50.2216 33.4339 47.8658 34.8913 47.3347 35.3832C46.7841 35.8911 46.8564 36.2837 46.9202 36.783C46.9729 37.2013 48.1576 42.7585 55.5907 46.3516C56.0298 46.5712 56.7705 47.0177 55.4644 47.7452Z" fill="#FBE705"/>
<defs>
<linearGradient id="paint0_linear_3510_167" x1="35" y1="0" x2="35" y2="70" gradientUnits="userSpaceOnUse">
<stop stop-color="#666666"/>
<stop offset="0.16" stop-color="#333333"/>
<stop offset="0.34" stop-color="#1A1A1A"/>
<stop offset="0.52"/>
</linearGradient>
</defs>
</svg>
