<svg width="70" height="70" viewBox="0 0 70 70" fill="none" xmlns="http://www.w3.org/2000/svg">
<rect width="70" height="70" rx="10" fill="url(#paint0_linear_3512_22)"/>
<path d="M45.353 28.327C48.4397 30.5413 52.2211 31.8442 56.3051 31.8442V23.9573C55.5322 23.9574 54.7613 23.8765 54.0051 23.7158V29.9239C49.9214 29.9239 46.1405 28.621 43.053 26.4068V42.5018C43.053 50.5533 36.5492 57.0799 28.5268 57.0799C25.5334 57.0799 22.7512 56.1717 20.4401 54.6141C23.0779 57.3209 26.7565 59 30.8263 59C38.8492 59 45.3534 52.4734 45.3534 44.4216V28.327H45.353V28.327ZM48.1904 20.37C46.6129 18.6405 45.5772 16.4054 45.353 13.9344V12.92H43.1735C43.7221 16.0606 45.5934 18.7438 48.1904 20.37ZM25.5142 48.4356C24.6329 47.2759 24.1566 45.8572 24.1587 44.3985C24.1587 40.7161 27.1336 37.7303 30.8037 37.7303C31.4877 37.7301 32.1675 37.8352 32.8194 38.0428V29.9796C32.0576 29.8748 31.2888 29.8303 30.5203 29.8466V36.1226C29.868 35.9151 29.1878 35.8096 28.5037 35.8103C24.8335 35.8103 21.8589 38.7958 21.8589 42.4787C21.8589 45.0828 23.3458 47.3374 25.5142 48.4356Z" fill="#FF004F"/>
<path d="M43.0529 26.4067C46.1404 28.6209 49.9213 29.9237 54.005 29.9237V23.7156C51.7255 23.2283 49.7075 22.0328 48.1903 20.37C45.5931 18.7436 43.722 16.0604 43.1733 12.92H37.4482V44.4213C37.4352 48.0937 34.4655 51.0673 30.8032 51.0673C28.6451 51.0673 26.7279 50.0349 25.5136 48.4356C23.3454 47.3374 21.8585 45.0827 21.8585 42.4789C21.8585 38.7963 24.8331 35.8105 28.5032 35.8105C29.2064 35.8105 29.8842 35.9204 30.5199 36.1228V29.8468C22.6384 30.0102 16.2998 36.473 16.2998 44.4214C16.2998 48.3892 17.8783 51.9861 20.4401 54.6143C22.7513 56.1717 25.5335 57.08 28.5268 57.08C36.5494 57.08 43.0531 50.5531 43.0531 42.5018V26.4067H43.0529Z" fill="black"/>
<path d="M54.0051 23.7156V22.037C51.9495 22.0401 49.9343 21.4624 48.1903 20.3699C49.7342 22.0661 51.7671 23.2357 54.0051 23.7156ZM43.1734 12.92C43.1211 12.6198 43.0809 12.3177 43.053 12.0144V11H35.148V42.5016C35.1354 46.1735 32.1658 49.1471 28.5033 49.1471C27.428 49.1471 26.4128 48.891 25.5137 48.4358C26.7279 50.0349 28.6452 51.0671 30.8033 51.0671C34.4652 51.0671 37.4354 48.0938 37.4482 44.4214V12.92H43.1734ZM30.5203 29.8468V28.0598C29.8598 27.9692 29.1938 27.9237 28.5271 27.924C20.5038 27.9239 14 34.4508 14 42.5016C14 47.5491 16.5561 51.9974 20.4403 54.614C17.8785 51.986 16.3 48.3889 16.3 44.4213C16.3 36.473 22.6385 30.0102 30.5203 29.8468Z" fill="#00F2EA"/>
<defs>
<linearGradient id="paint0_linear_3512_22" x1="35" y1="0" x2="35" y2="70" gradientUnits="userSpaceOnUse">
<stop offset="0.52" stop-color="white"/>
</linearGradient>
</defs>
</svg>
